<svg width="25" height="25" viewBox="0 0 25 25" fill="none" xmlns="http://www.w3.org/2000/svg">
<path d="M10.2999 10.4873C9.5874 10.4873 9.0249 11.1123 9.0249 11.8748C9.0249 12.6373 9.5999 13.2623 10.2999 13.2623C11.0124 13.2623 11.5749 12.6373 11.5749 11.8748C11.5874 11.1123 11.0124 10.4873 10.2999 10.4873ZM14.8624 10.4873C14.1499 10.4873 13.5874 11.1123 13.5874 11.8748C13.5874 12.6373 14.1624 13.2623 14.8624 13.2623C15.5749 13.2623 16.1374 12.6373 16.1374 11.8748C16.1374 11.1123 15.5749 10.4873 14.8624 10.4873Z" fill="black"/>
<path d="M20.9375 0H4.1875C2.775 0 1.625 1.15 1.625 2.575V19.475C1.625 20.9 2.775 22.05 4.1875 22.05H18.3625L17.7 19.7375L19.3 21.225L20.8125 22.625L23.5 25V2.575C23.5 1.15 22.35 0 20.9375 0ZM16.1125 16.325C16.1125 16.325 15.6625 15.7875 15.2875 15.3125C16.925 14.85 17.55 13.825 17.55 13.825C17.0375 14.1625 16.55 14.4 16.1125 14.5625C15.4875 14.825 14.8875 15 14.3 15.1C13.1 15.325 12 15.2625 11.0625 15.0875C10.35 14.95 9.7375 14.75 9.225 14.55C8.9375 14.4375 8.625 14.3 8.3125 14.125C8.275 14.1 8.2375 14.0875 8.2 14.0625C8.175 14.05 8.1625 14.0375 8.15 14.025C7.925 13.9 7.8 13.8125 7.8 13.8125C7.8 13.8125 8.4 14.8125 9.9875 15.2875C9.6125 15.7625 9.15 16.325 9.15 16.325C6.3875 16.2375 5.3375 14.425 5.3375 14.425C5.3375 10.4 7.1375 7.1375 7.1375 7.1375C8.9375 5.7875 10.65 5.825 10.65 5.825L10.775 5.975C8.525 6.625 7.4875 7.6125 7.4875 7.6125C7.4875 7.6125 7.7625 7.4625 8.225 7.25C9.5625 6.6625 10.625 6.5 11.0625 6.4625C11.1375 6.45 11.2 6.4375 11.275 6.4375C12.0375 6.3375 12.9 6.3125 13.8 6.4125C14.9875 6.55 16.2625 6.9 17.5625 7.6125C17.5625 7.6125 16.575 6.675 14.45 6.025L14.625 5.825C14.625 5.825 16.3375 5.7875 18.1375 7.1375C18.1375 7.1375 19.9375 10.4 19.9375 14.425C19.9375 14.425 18.875 16.2375 16.1125 16.325V16.325Z" fill="black"/>
</svg>
