<svg width="24" height="25" viewBox="0 0 24 25" fill="none" xmlns="http://www.w3.org/2000/svg">
<path d="M12 0.5C5.37321 0.5 0 5.87321 0 12.5C0 19.1268 5.37321 24.5 12 24.5C18.6268 24.5 24 19.1268 24 12.5C24 5.87321 18.6268 0.5 12 0.5ZM18.8571 7.29554L17.7643 8.34286C17.6679 8.41518 17.6223 8.53304 17.6411 8.64821V16.3545C17.6223 16.4723 17.6679 16.5902 17.7643 16.6598L18.8357 17.7071V17.9402H13.4571V17.7179L14.5634 16.6438C14.6732 16.5339 14.6732 16.5018 14.6732 16.3384V10.1027L11.5929 17.9134H11.1777L7.59375 10.1027V15.3393C7.56161 15.5589 7.63929 15.7813 7.79464 15.9393L9.23571 17.683V17.9161H5.14286V17.683L6.58393 15.9393C6.65985 15.8609 6.71636 15.7657 6.74892 15.6615C6.78148 15.5574 6.78919 15.447 6.77143 15.3393V9.28571C6.79018 9.11696 6.72589 8.95357 6.59732 8.83839L5.31696 7.29554V7.0625H9.29464L12.3643 13.7991L15.067 7.06786H18.8571V7.29554Z" fill="black"/>
</svg>
