<svg id="bfb83fc6-7692-4c37-b776-db238008a338" data-name="Layer 1" xmlns="http://www.w3.org/2000/svg" viewBox="0 0 1243.54 505.05">
  <path d="M16.36,262.51V396.3c99.58,5.36,158.55,111.06,210.38,117.44,22.73,1.28,88.35-47.48,112.35-49.53,6.63,0,82.72-4.08,95.48-4.08s73.54-22,95.49-22S665.89,497.4,700.62,497.4c58.47,2.05,113.87-123.06,165.44-123.06s125.11,129.19,182.3,129.19,100.09-81.7,158.81-81.7H1248V262.51Z" transform="translate(-7.04 -8.72)"/>
  <rect x="20.04" y="29.11" width="1221" height="325" rx="13.63"/>
  <path d="M1229.7,22.35a13.63,13.63,0,0,0-13.63-13.63H22.33A13.63,13.63,0,0,0,8.7,22.35L7,370.26c98.85,5.36,157.39,111.06,208.84,117.44,22.56,1.28,87.69-47.49,111.51-49.53,6.59,0,82.12-4.08,94.79-4.08s73-22,94.79-22,134.83,59.23,169.3,59.23c58,2,113-123.06,164.23-123.06s124.19,129.19,181,129.19,99.35-81.7,157.64-81.7h40.55Z" transform="translate(-7.04 -8.72)" fill="#ECD6FF"/>
</svg>
