<svg width="25" height="25" viewBox="0 0 25 25" fill="none" xmlns="http://www.w3.org/2000/svg">
<path d="M12.5 25C19.4036 25 25 19.4036 25 12.5C25 5.59644 19.4036 0 12.5 0C5.59644 0 0 5.59644 0 12.5C0 19.4036 5.59644 25 12.5 25Z" fill="black"/>
<path fill-rule="evenodd" clip-rule="evenodd" d="M5.65806 12.3675C9.30207 10.7798 11.732 9.73316 12.9478 9.22747C16.4192 7.7836 17.1405 7.53278 17.6106 7.5245C17.714 7.52268 17.9453 7.54831 18.095 7.66983C18.2215 7.77244 18.2563 7.91106 18.2729 8.00835C18.2896 8.10563 18.3103 8.32726 18.2938 8.50043C18.1057 10.477 17.2917 15.2735 16.8776 17.4873C16.7024 18.424 16.3574 18.7381 16.0234 18.7688C15.2975 18.8356 14.7463 18.2891 14.0432 17.8282C12.943 17.1071 12.3215 16.6581 11.2536 15.9544C10.0195 15.1411 10.8195 14.6941 11.5228 13.9636C11.7069 13.7724 14.9052 10.8633 14.9671 10.5994C14.9749 10.5664 14.9821 10.4434 14.909 10.3784C14.8359 10.3135 14.728 10.3357 14.6502 10.3533C14.5398 10.3784 12.7823 11.54 9.37759 13.8383C8.87873 14.1809 8.42687 14.3478 8.02202 14.339C7.5757 14.3294 6.71717 14.0867 6.07894 13.8792C5.29613 13.6248 4.67397 13.4902 4.72814 13.0581C4.75636 12.833 5.06633 12.6028 5.65806 12.3675Z" fill="#A4F5D1"/>
</svg>
