<svg width="25" height="25" viewBox="0 0 25 25" fill="none" xmlns="http://www.w3.org/2000/svg">
<path d="M7.862 22.6566C17.296 22.6566 22.456 14.8406 22.456 8.06257C22.456 7.84057 22.456 7.61958 22.441 7.39958C23.4448 6.67349 24.3114 5.77445 25 4.74457C24.0639 5.15958 23.0709 5.43161 22.054 5.55157C23.1248 4.91063 23.9262 3.90239 24.309 2.71457C23.3022 3.31208 22.2007 3.73314 21.052 3.95957C20.2787 3.13726 19.2559 2.59274 18.1419 2.41029C17.0279 2.22783 15.8848 2.41761 14.8895 2.95025C13.8943 3.4829 13.1023 4.32871 12.6362 5.35681C12.1701 6.38491 12.0558 7.53798 12.311 8.63757C10.2718 8.53528 8.27683 8.00532 6.45568 7.08208C4.63453 6.15884 3.02788 4.86297 1.74 3.27857C1.08409 4.40774 0.8832 5.74444 1.17823 7.01651C1.47326 8.28859 2.24202 9.4004 3.328 10.1256C2.5117 10.1017 1.71317 9.88144 1 9.48357V9.54857C1.00032 10.7328 1.41026 11.8804 2.16028 12.7969C2.9103 13.7133 3.95423 14.3421 5.115 14.5766C4.35988 14.7826 3.56758 14.8127 2.799 14.6646C3.12689 15.6837 3.76503 16.5748 4.62421 17.2135C5.48338 17.8521 6.52065 18.2063 7.591 18.2266C6.52754 19.0625 5.3097 19.6805 4.00716 20.0453C2.70462 20.4101 1.34293 20.5145 0 20.3526C2.34566 21.8578 5.07492 22.6562 7.862 22.6526" fill="black"/>
</svg>
